<svg width="181" height="181" viewBox="0 0 181 181" fill="none" xmlns="http://www.w3.org/2000/svg">
<path fill-rule="evenodd" clip-rule="evenodd" d="M75.2133 9.71456C75.3825 4.30096 79.82 0 85.2362 0H100.278C105.694 0 110.132 4.30096 110.301 9.71456L110.389 12.5347H115.32C120.858 12.5347 125.347 17.0243 125.347 22.5625V28.6445C136.278 26.1709 148.076 27.8232 158.09 36.168C178.893 53.5039 176.979 89.8441 152.29 109.721C146.332 114.518 141.651 118.495 138.428 122.592C137.693 123.527 137.063 124.431 136.533 125.317L146.695 126.691C151.669 127.364 155.379 131.61 155.379 136.628V155.431C155.379 160.969 150.89 165.458 145.351 165.458H40.1627C34.6245 165.458 30.1349 160.969 30.1349 155.431V136.628C30.1349 131.61 33.8452 127.364 38.8187 126.691L48.9816 125.317C48.4513 124.431 47.8213 123.527 47.0859 122.592C43.8628 118.495 39.1822 114.518 33.2242 109.721C8.5353 89.8441 6.62117 53.5039 27.4242 36.168C37.438 27.8232 49.2361 26.1709 60.1668 28.6445V22.5625C60.1668 17.0243 64.6564 12.5347 70.1945 12.5347H75.1252L75.2133 9.71456Z" fill="#E8EDF9"/>
<path fill-rule="evenodd" clip-rule="evenodd" d="M85.2361 10.0278H100.278L100.67 22.5625H115.319V37.6042H101.14L101.828 54.6338C102.103 54.31 102.386 53.9925 102.678 53.6824C116.374 39.1261 136.68 31.3799 151.67 43.8715C166.712 56.4062 166.712 85.2361 146.001 101.91C134.269 111.356 123.761 120.461 124.279 133.778L145.351 136.628V155.431H40.1626V136.628L61.235 133.778C61.7528 120.461 51.2445 111.355 39.5127 101.91C18.8021 85.2361 18.8021 56.4062 33.8438 43.8715C48.8337 31.3799 69.14 39.1261 82.8359 53.6824C83.1276 53.9925 83.4107 54.31 83.6855 54.6338L84.3744 37.6042H70.1945V22.5625H84.8444L85.2361 10.0278ZM71.067 67.6202C80.2591 82.6768 81.4757 100.278 81.4757 107.932C76.8683 107.94 59.4994 100.299 50.3035 87.7547C43.6831 78.7236 41.9568 65.3246 47.632 60.1227C53.3072 54.921 65.3219 58.2098 71.067 67.6202ZM114.447 67.6202C105.255 82.6768 104.038 100.278 104.038 107.932C108.646 107.94 126.015 100.299 135.21 87.7547C141.831 78.7236 143.557 65.3246 137.882 60.1227C132.207 54.921 120.192 58.2098 114.447 67.6202Z" fill="#7B61FF"/>
</svg>
